<svg width="145" height="54" viewBox="0 0 145 54" fill="none" xmlns="http://www.w3.org/2000/svg">
<g clip-path="url(#clip0_66_594)">
<path d="M143.961 49.5818C143.465 50.4949 139.923 52.5174 138.521 54L14.0107 53.0181L4.34004 51.0545C4.37631 44.5647 -0.809604 6.63705 0.109113 4.41814C1.13662 1.94396 9.92487 0.206137 12.8019 -4.44968e-05C13.1887 -0.029499 19.6681 1.97341 20.0549 1.96359C60.4784 0.805046 100.394 0.343592 140.939 0.981774C146.354 2.94541 145.194 47.3334 143.961 49.5818Z" fill="#7C050E"/>
<path d="M140.939 0.981774C100.394 0.343592 60.4784 0.805046 20.0549 1.96359C19.6681 1.97341 13.1887 -0.029499 12.8019 -4.44968e-05C9.92487 0.206137 1.13662 1.94396 0.109113 4.41814C-0.809604 6.63705 4.37631 44.5647 4.34004 51.0545L14.0107 53.0181L138.521 54C139.923 52.5174 143.465 50.4949 143.961 49.5818C145.194 47.3334 146.354 2.94541 140.939 0.981774ZM140.334 47.6181C137.409 51.2018 130.144 53.1949 127.641 49.0909L125.224 51.0545C108.699 50.6029 92.2104 51.2214 75.6614 51.0545C74.7548 51.0447 75.3592 49.1007 74.4526 49.0909C72.1921 48.5018 72.8207 51.0643 72.0349 51.0545C50.4934 50.7992 30.596 49.2578 9.17539 49.0909L7.36213 47.6181C10.4084 37.7214 -1.51073 6.65668 6.75772 3.92723C9.6831 2.96505 19.2571 6.24432 24.8903 2.94541C46.5889 3.79959 68.5172 2.71959 90.1675 2.94541C90.4576 2.94541 91.606 4.26105 92.5851 4.90905C94.6885 2.42505 99.9711 1.61014 101.047 4.90905C105.907 0.697046 108.941 4.90905 109.509 4.90905C111.455 4.92868 115.227 2.94541 115.553 2.94541C119.711 2.90614 139.246 2.83741 140.334 5.39996V47.6181Z" fill="#C10B13"/>
</g>
<defs>
<clipPath id="clip0_66_594">
<rect width="145" height="54" fill="white"/>
</clipPath>
</defs>
</svg>
