<svg width="209" height="6" viewBox="0 0 209 6" fill="none" xmlns="http://www.w3.org/2000/svg">
<g clip-path="url(#clip0_78_6314)">
<path d="M152.645 5.96848C153.69 5.48511 154.503 5.41156 155.398 5.56918C156.078 5.42207 156.758 5.31699 157.488 5.38003C158.682 5.48511 159.876 5.76883 161.07 5.92644C161.236 5.94746 161.402 5.96848 161.568 5.97898C162.696 5.90543 163.857 5.88441 165.001 5.8634C165.78 5.77933 166.576 5.68476 167.356 5.63222C167.621 5.61121 167.903 5.6007 168.169 5.59019C168.484 5.53765 168.782 5.4641 169.097 5.39054C169.976 5.16988 170.905 4.89667 171.884 4.82312C172.779 4.76007 173.592 4.8021 174.421 5.00175C175.051 5.15937 175.798 5.42207 176.527 5.39054C177.191 5.36953 177.771 5.24343 178.385 5.11734C179.562 4.87566 180.79 4.6655 182.05 4.58144C182.597 4.54991 183.145 4.51839 183.692 4.49737C184.289 4.44483 184.886 4.42382 185.483 4.41331H185.632C185.798 4.39229 185.964 4.37128 186.097 4.36077C188.568 4.1401 191.072 4.07706 193.576 4.0035C195.417 3.95096 197.275 3.85639 199.116 3.87741C201.073 3.90893 202.963 3.92995 204.904 3.75131C206.28 3.61471 207.624 3.4676 209 3.35201C206.546 3.23643 204.074 2.63748 201.62 2.49037C198.95 2.33275 196.711 0.998249 194.041 1.4711C193.46 1.57618 192.963 1.83888 192.465 2.07005C190.989 2.07005 189.513 2.09107 188.037 2.11208C187.573 2.03853 187.108 1.98599 186.644 2.01751C186.063 2.04904 185.5 2.07005 184.936 2.07005C183.493 2.38529 181.984 2.60595 180.64 2.22767C179.33 1.84939 178.352 0.851138 177.29 0C177.008 0.304729 176.693 0.54641 176.395 0.735552C175.814 1.62872 175.101 1.61821 173.907 1.72329C172.381 1.85989 170.888 2.07005 169.379 2.17513C167.588 2.29072 165.78 2.31173 163.989 2.4063C162.646 2.09107 161.319 1.62872 160.142 1.15587C159.976 1.08231 159.744 1.02977 159.511 0.987741C159.362 0.977233 159.229 0.956217 159.08 0.945709C157.505 0.819615 156.228 1.75482 154.685 1.85989C153.574 1.93345 152.496 1.68126 151.435 1.43958C150.473 1.36602 149.511 1.34501 148.599 1.29247C147.736 1.23993 146.857 1.11384 145.962 1.04028C145.348 1.09282 144.718 1.18739 144.104 1.29247C143.955 1.32399 143.855 1.1979 143.839 1.0613C143.706 1.08231 143.557 1.09282 143.424 1.12434C139.162 2.00701 135.165 2.60595 130.803 2.35377C127.719 2.17513 124.601 2.32224 121.499 2.43783C120.355 2.30123 119.194 2.15412 118.05 2.01751C115.28 1.69177 112.527 1.30298 109.757 1.09282C107.27 0.914186 104.799 1.16637 102.311 1.14536C100.138 1.12434 97.9823 1.41856 95.8097 1.78634C93.8195 1.7338 91.8128 1.68126 89.8226 1.58669C87.7164 1.49212 85.5769 1.25044 83.4707 1.29247C82.5254 1.31349 81.5966 1.43958 80.6513 1.50263C79.3245 1.58669 78.0309 1.1979 76.7041 1.27145C74.6974 1.38704 72.8067 1.76532 70.8166 1.82837C67.2509 1.57618 63.5359 1.23993 60.02 1.40806C57.8474 1.51313 56.0065 2.29072 53.7841 2.21716C51.5949 2.14361 49.8038 1.68126 47.5649 1.81786C45.3923 1.94396 43.1865 2.12259 41.0139 2.32224H39.9359C35.939 2.3958 31.9421 2.76357 27.9618 3.18389C22.4225 3.2049 16.8998 3.23643 11.3605 3.27846C10.0006 3.331 8.65723 3.40455 7.31387 3.49912C4.9091 3.67776 2.47115 3.91944 0.0332031 3.98249C6.15295 4.18214 12.2561 4.68651 18.409 4.67601C23.5171 4.65499 28.6086 4.35026 33.7333 4.28722C38.5926 4.22417 43.4353 4.31874 48.2448 4.72855C48.2448 4.72855 48.2614 4.72855 48.278 4.72855C61.496 4.79159 74.7306 4.84413 87.9485 4.87566C88.4295 4.9387 88.9105 5.00175 89.408 5.07531C93.1893 5.66375 97.2194 5.2014 101.034 5.03327C101.863 4.99124 102.692 4.94921 103.522 4.89667C112.477 4.89667 121.433 4.89667 130.389 4.89667C130.671 4.9282 130.953 4.97023 131.235 5.02277C134.999 5.68476 138.847 5.27496 142.661 5.34851C144.685 5.09632 146.708 5.04378 148.665 5.52715C149.146 5.64273 149.61 5.82137 150.058 6.01051C150.954 6.05254 151.833 6.04203 152.695 6.01051L152.645 5.96848Z" fill="#B42427"/>
<g style="mix-blend-mode:multiply">
<path d="M152.646 4.20311C153.691 4.00347 154.503 3.98245 155.399 4.0455C156.079 3.98245 156.759 3.94042 157.488 3.97194C158.683 4.01397 159.877 4.12956 161.071 4.19261C161.237 4.19261 161.402 4.21362 161.568 4.21362C162.696 4.1821 163.857 4.17159 165.001 4.16108C165.781 4.12956 166.577 4.08753 167.356 4.06651L168.169 4.0455C168.484 4.02448 168.783 3.99296 169.098 3.96143C169.977 3.87737 170.905 3.76178 171.884 3.73026C172.78 3.69874 173.592 3.73026 174.421 3.80382C175.052 3.86686 175.798 3.97194 176.528 3.96143C177.191 3.96143 177.772 3.90889 178.385 3.85635C179.563 3.76178 180.79 3.66721 182.05 3.63569C182.598 3.62518 183.145 3.61467 183.692 3.60417C184.289 3.58315 184.886 3.57264 185.483 3.57264H185.633C185.799 3.57264 185.964 3.55163 186.097 3.55163C188.568 3.46756 191.072 3.43604 193.577 3.40452C195.418 3.3835 197.275 3.34147 199.116 3.35198C201.023 3.36248 202.848 3.37299 204.722 3.30995C202.3 3.01572 199.895 2.66896 197.424 2.57439C195.998 2.52185 194.572 2.50084 193.146 2.49033C192.913 2.53236 192.681 2.57439 192.466 2.61642C190.99 2.61642 189.513 2.62693 188.037 2.63744C187.573 2.60592 187.109 2.5849 186.644 2.59541C186.313 2.59541 185.998 2.59541 185.666 2.60592C185.649 2.60592 185.633 2.61642 185.616 2.61642C183.825 2.85811 182.067 2.80557 180.243 2.68998C178.103 2.55338 176.13 2.57439 174.007 2.74252C169.877 3.06826 165.698 2.73201 161.535 2.7215C159.346 2.7215 157.157 2.73201 154.951 2.77404C152.762 2.81607 150.656 2.62693 148.483 2.56389C145.398 2.47982 142.314 2.46931 139.229 2.53236C136.443 2.70049 133.689 2.79506 130.771 2.7215C127.686 2.64795 124.568 2.711 121.467 2.75303L118.017 2.5849C115.247 2.4483 112.494 2.29068 109.725 2.20662C107.237 2.13306 104.766 2.23814 102.278 2.22763C100.106 2.22763 97.9495 2.34322 95.7769 2.49033C93.7868 2.46931 91.78 2.4483 89.7899 2.40627C87.6836 2.36424 85.5442 2.26966 83.438 2.29068C82.4926 2.29068 81.5639 2.35373 80.6185 2.37474C79.2918 2.40627 77.9982 2.24865 76.6714 2.28017C74.6647 2.3222 72.774 2.47982 70.7838 2.50084C67.2181 2.39576 63.5032 2.25916 59.9872 2.33271C59.7716 2.33271 59.5726 2.34322 59.3736 2.35373C58.4614 2.42728 57.5327 2.49033 56.6039 2.54287C55.8079 2.60592 55.0118 2.64795 54.166 2.65846C51.3798 2.76354 48.5936 2.77404 45.8073 2.78455C43.1704 2.78455 40.5334 2.78455 37.8964 2.86861C35.2263 2.94217 32.5728 3.14182 29.9358 3.32045C26.1877 3.58315 22.4395 3.71975 18.6748 3.81432C19.7196 3.81432 20.7645 3.7828 21.8093 3.75128H22.141C25.4579 3.75128 28.7417 3.69874 32.042 3.68823C32.2742 3.68823 32.3903 3.67772 32.4235 3.6462C50.9154 3.69874 69.3907 3.73026 87.8826 3.74077C88.3636 3.76178 88.8445 3.79331 89.3421 3.82483C93.1234 4.06651 97.1535 3.87737 100.968 3.81432L103.456 3.76178H130.323C130.605 3.76178 130.887 3.79331 131.169 3.80382C134.933 4.07702 138.781 3.90889 142.595 3.94042C144.619 3.83534 146.642 3.81432 148.599 4.01397C149.08 4.06651 149.544 4.12956 149.992 4.20311C150.888 4.22413 151.767 4.21362 152.629 4.20311H152.646Z" fill="#711011"/>
</g>
</g>
<defs>
<clipPath id="clip0_78_6314">
<rect width="209" height="6" fill="white"/>
</clipPath>
</defs>
</svg>
